<?xml version="1.0" encoding="UTF-8"?>
<svg version="1.1" xmlns="http://www.w3.org/2000/svg" width="256" height="256">
<path d="M0 0 C0.67417969 0.18191895 1.34835938 0.36383789 2.04296875 0.55126953 C17.03276928 4.73629618 30.3602106 12.07039754 43 21 C43.99 21.66 44.98 22.32 46 23 C46 23.66 46 24.32 46 25 C46.556875 25.226875 47.11375 25.45375 47.6875 25.6875 C50.64187072 27.36430501 52.63102343 29.57324352 55 32 C55.845625 32.66 56.69125 33.32 57.5625 34 C60.14584335 36.11966634 62.06683565 38.27925017 64 41 C64 41.66 64 42.32 64 43 C64.66 43 65.32 43 66 43 C88.33970214 68.40789365 94.36722576 103.38913377 93 136 C91.15743583 159.32134355 81.34521812 181.10993773 68 200 C67.34 200.99 66.68 201.98 66 203 C65.34 203 64.68 203 64 203 C63.773125 203.556875 63.54625 204.11375 63.3125 204.6875 C61.63569499 207.64187072 59.42675648 209.63102343 57 212 C56.34 212.845625 55.68 213.69125 55 214.5625 C52.88033366 217.14584335 50.72074983 219.06683565 48 221 C47.34 221 46.68 221 46 221 C46 221.66 46 222.32 46 223 C20.59210635 245.33970214 -14.38913377 251.36722576 -47 250 C-70.32134355 248.15743583 -92.10993773 238.34521812 -111 225 C-111.99 224.34 -112.98 223.68 -114 223 C-114 222.34 -114 221.68 -114 221 C-114.556875 220.773125 -115.11375 220.54625 -115.6875 220.3125 C-118.64187072 218.63569499 -120.63102343 216.42675648 -123 214 C-123.845625 213.34 -124.69125 212.68 -125.5625 212 C-128.14584335 209.88033366 -130.06683565 207.72074983 -132 205 C-132 204.34 -132 203.68 -132 203 C-132.66 203 -133.32 203 -134 203 C-156.43571415 177.4829078 -162.76966995 141.79537289 -161 109 C-160.27338213 102.19132141 -158.80802377 95.59624118 -157 89 C-156.81808105 88.32582031 -156.63616211 87.65164062 -156.44873047 86.95703125 C-152.26370382 71.96723072 -144.92960246 58.6397894 -136 46 C-135.34 45.01 -134.68 44.02 -134 43 C-133.34 43 -132.68 43 -132 43 C-131.773125 42.443125 -131.54625 41.88625 -131.3125 41.3125 C-129.63569499 38.35812928 -127.42675648 36.36897657 -125 34 C-124.34 33.154375 -123.68 32.30875 -123 31.4375 C-120.88033366 28.85415665 -118.72074983 26.93316435 -116 25 C-115.34 25 -114.68 25 -114 25 C-114 24.34 -114 23.68 -114 23 C-84.09505274 -3.29370318 -37.45295892 -10.2658223 0 0 Z " fill="#FDFEFE" transform="translate(162,5)"/>
<path d="M0 0 C0.67417969 0.18191895 1.34835938 0.36383789 2.04296875 0.55126953 C17.03276928 4.73629618 30.3602106 12.07039754 43 21 C43.99 21.66 44.98 22.32 46 23 C46 23.66 46 24.32 46 25 C46.556875 25.226875 47.11375 25.45375 47.6875 25.6875 C50.64187072 27.36430501 52.63102343 29.57324352 55 32 C55.845625 32.66 56.69125 33.32 57.5625 34 C60.14584335 36.11966634 62.06683565 38.27925017 64 41 C64 41.66 64 42.32 64 43 C64.66 43 65.32 43 66 43 C88.33970214 68.40789365 94.36722576 103.38913377 93 136 C91.15743583 159.32134355 81.34521812 181.10993773 68 200 C67.34 200.99 66.68 201.98 66 203 C65.34 203 64.68 203 64 203 C63.773125 203.556875 63.54625 204.11375 63.3125 204.6875 C61.63569499 207.64187072 59.42675648 209.63102343 57 212 C56.34 212.845625 55.68 213.69125 55 214.5625 C52.88033366 217.14584335 50.72074983 219.06683565 48 221 C47.34 221 46.68 221 46 221 C46 221.66 46 222.32 46 223 C20.59210635 245.33970214 -14.38913377 251.36722576 -47 250 C-70.32134355 248.15743583 -92.10993773 238.34521812 -111 225 C-111.99 224.34 -112.98 223.68 -114 223 C-114 222.34 -114 221.68 -114 221 C-114.556875 220.773125 -115.11375 220.54625 -115.6875 220.3125 C-118.64187072 218.63569499 -120.63102343 216.42675648 -123 214 C-123.845625 213.34 -124.69125 212.68 -125.5625 212 C-128.14584335 209.88033366 -130.06683565 207.72074983 -132 205 C-132 204.34 -132 203.68 -132 203 C-132.66 203 -133.32 203 -134 203 C-156.43571415 177.4829078 -162.76966995 141.79537289 -161 109 C-160.27338213 102.19132141 -158.80802377 95.59624118 -157 89 C-156.81808105 88.32582031 -156.63616211 87.65164062 -156.44873047 86.95703125 C-152.26370382 71.96723072 -144.92960246 58.6397894 -136 46 C-135.34 45.01 -134.68 44.02 -134 43 C-133.34 43 -132.68 43 -132 43 C-131.773125 42.443125 -131.54625 41.88625 -131.3125 41.3125 C-129.63569499 38.35812928 -127.42675648 36.36897657 -125 34 C-124.34 33.154375 -123.68 32.30875 -123 31.4375 C-120.88033366 28.85415665 -118.72074983 26.93316435 -116 25 C-115.34 25 -114.68 25 -114 25 C-114 24.34 -114 23.68 -114 23 C-84.09505274 -3.29370318 -37.45295892 -10.2658223 0 0 Z M-123 49 C-144.12516012 74.42759036 -150.92615253 105.15017071 -148.83007812 137.63330078 C-146.02967578 167.31632656 -129.02208032 193.71000372 -107 213 C-93.71102393 223.61568351 -78.44047721 230.92518234 -62 235 C-60.37771484 235.51433594 -60.37771484 235.51433594 -58.72265625 236.0390625 C-31.07677977 243.1753538 -0.31282641 236.71431379 24.08984375 222.80078125 C50.4023927 206.51878787 70.74468744 181.2413224 78.05859375 150.84765625 C78.81193414 147.23955229 79.45116631 143.64425573 80 140 C80.19529297 138.82824219 80.19529297 138.82824219 80.39453125 137.6328125 C84.45826504 108.9157604 76.37599195 78.55394406 59.09765625 55.45703125 C57.11503184 52.92476838 55.07821711 50.45431237 53 48 C52.2884375 47.15308594 51.576875 46.30617187 50.84375 45.43359375 C32.15418131 23.88136225 4.26344947 10.63873844 -24 8 C-62.21324232 5.31163119 -97.82315852 20.15448253 -123 49 Z " fill="#02A960" transform="translate(162,5)"/>
<path d="M0 0 C0.99 0 1.98 0 3 0 C3.66 28.05 4.32 56.1 5 85 C14.68312248 70.04378505 14.68312248 70.04378505 24.09570312 54.92382812 C24.58103516 54.14330078 25.06636719 53.36277344 25.56640625 52.55859375 C25.98865479 51.87079834 26.41090332 51.18300293 26.84594727 50.47436523 C27.41720337 49.74455444 27.41720337 49.74455444 28 49 C28.66 49 29.32 49 30 49 C29.40633106 53.19887599 27.96667114 56.17730954 25.83203125 59.82421875 C25.18556641 60.93603516 24.53910156 62.04785156 23.87304688 63.19335938 C23.18631593 64.3581425 22.49946639 65.52285572 21.8125 66.6875 C21.15185547 67.82123047 20.49121094 68.95496094 19.81054688 70.12304688 C14.64283851 78.97395903 14.64283851 78.97395903 12.17993164 82.9050293 C11.35996704 84.21661011 11.35996704 84.21661011 10.5234375 85.5546875 C10.0392334 86.31120605 9.5550293 87.06772461 9.05615234 87.84716797 C7.36478816 91.29479844 7.80088576 94.21682951 8 98 C7.52304688 98.39960938 7.04609375 98.79921875 6.5546875 99.2109375 C4.05363936 102.08902808 4.42403599 105.53867982 4.3125 109.1875 C4.27833984 109.93708984 4.24417969 110.68667969 4.20898438 111.45898438 C4.12665706 113.30546838 4.06164719 115.15270994 4 117 C2.35 117 0.7 117 -1 117 C-1.33 113.7 -1.66 110.4 -2 107 C-4.475 111.455 -4.475 111.455 -7 116 C-8.65 115.01 -10.3 114.02 -12 113 C-8.3853211 105.44036697 -8.3853211 105.44036697 -6.25 103 C-4.54215929 100.26745486 -4.93556788 98.14016219 -5.28515625 95 C-5 93 -5 93 -3.01629639 91.41400146 C-0.13351752 87.96260789 -0.42766063 84.67473292 -0.45410156 80.37597656 C-0.44376389 79.50732468 -0.43342621 78.63867279 -0.42277527 77.74369812 C-0.39330474 74.87581881 -0.3918472 72.00864395 -0.390625 69.140625 C-0.37564622 67.15092621 -0.35891972 65.16123987 -0.34051514 63.17156982 C-0.29679551 57.93714838 -0.27683226 52.70289468 -0.26177979 47.46832275 C-0.24222538 42.12591617 -0.20025348 36.78369116 -0.16015625 31.44140625 C-0.08480412 20.96099345 -0.0345429 10.48062119 0 0 Z " fill="#93BC98" transform="translate(126,33)"/>
<path d="M0 0 C1.875 1.125 1.875 1.125 3 3 C3.375 6 3.375 6 3 9 C2.51144531 9.38800781 2.02289063 9.77601563 1.51953125 10.17578125 C-0.91605146 13.09973273 -0.57592003 16.53724083 -0.6875 20.1875 C-0.72166016 20.93708984 -0.75582031 21.68667969 -0.79101562 22.45898438 C-0.87334294 24.30546838 -0.93835281 26.15270994 -1 28 C-2.65 28 -4.3 28 -6 28 C-6.33 24.7 -6.66 21.4 -7 18 C-9.475 22.455 -9.475 22.455 -12 27 C-13.65 26.01 -15.3 25.02 -17 24 C-13.3853211 16.44036697 -13.3853211 16.44036697 -11.25 14 C-9.78023402 11.64837444 -9.92780547 10.71384526 -10.0625 8 C-10.17179511 4.91672739 -10.13248488 4.20382289 -8.375 1.5 C-5.31593299 -0.43204232 -3.5572204 -0.52979878 0 0 Z " fill="#8BB892" transform="translate(131,122)"/>
<path d="M0 0 C3 0.4375 3 0.4375 4.6640625 1.625 C6.49262143 4.10585188 6.39988086 5.81880159 6.375 8.875 C6.38273437 9.82246094 6.39046875 10.76992187 6.3984375 11.74609375 C5.94790217 14.78941571 5.02617742 16.17011099 3 18.4375 C-0.375 18.125 -0.375 18.125 -4 17.4375 C-6.13749925 14.23125113 -6.29574999 13.21291897 -6.3125 9.5 C-6.32925781 8.64535156 -6.34601562 7.79070312 -6.36328125 6.91015625 C-5.7367629 2.64578943 -4.29258877 0.62600253 0 0 Z " fill="#ABABAC" transform="translate(54,71.5625)"/>
<path d="M0 0 C0.94552734 0.16242188 0.94552734 0.16242188 1.91015625 0.328125 C4.37909889 4.03153896 3.7310104 5.13264824 2.91015625 9.328125 C3.24015625 9.658125 3.57015625 9.988125 3.91015625 10.328125 C4.09765625 12.765625 4.09765625 12.765625 3.91015625 15.328125 C1.91015625 17.328125 1.91015625 17.328125 0.03515625 17.59375 C-0.66609375 17.58859375 -1.36734375 17.5834375 -2.08984375 17.578125 C-3.14171875 17.58585937 -3.14171875 17.58585937 -4.21484375 17.59375 C-6.08984375 17.328125 -6.08984375 17.328125 -8.08984375 15.328125 C-8.21484375 12.390625 -8.21484375 12.390625 -8.08984375 9.328125 C-8.08984375 8.338125 -8.08984375 7.348125 -8.08984375 6.328125 C-7.05938853 0.1453937 -6.34210446 0.23020343 0 0 Z " fill="#A6A6A6" transform="translate(44.08984375,165.671875)"/>
<path d="M0 0 C3.125 0.4375 3.125 0.4375 5.5 2.5 C7.5290053 6.16781728 7.64260491 8.29666073 7.125 12.4375 C5.96860194 14.75029611 4.95090172 16.61159828 3.125 18.4375 C0.78555264 18.15019945 -1.5489143 17.81813221 -3.875 17.4375 C-4.205 16.4475 -4.535 15.4575 -4.875 14.4375 C-2.235 14.7675 0.405 15.0975 3.125 15.4375 C3.455 14.1175 3.785 12.7975 4.125 11.4375 C3.196875 11.64375 2.26875 11.85 1.3125 12.0625 C-1.875 12.4375 -1.875 12.4375 -4.875 10.4375 C-5.23828125 8.5625 -5.23828125 8.5625 -5.1875 6.4375 C-5.18169922 5.385625 -5.18169922 5.385625 -5.17578125 4.3125 C-4.63875567 0.96480806 -3.18326604 0.48441005 0 0 Z " fill="#AAAAAB" transform="translate(27.875,118.5625)"/>
<path d="M0 0 C0.33 1.32 0.66 2.64 1 4 C-1.31 3.67 -3.62 3.34 -6 3 C-6.66 4.32 -7.32 5.64 -8 7 C-6.906875 6.773125 -5.81375 6.54625 -4.6875 6.3125 C-1 6 -1 6 1 7 C2.60559331 10.21118663 1.86197805 12.61365767 1 16 C-2 18 -2 18 -5.0625 17.875 C-8 17 -8 17 -9.1640625 15.2265625 C-10.85642119 10.71887814 -10.77607252 5.87170432 -8.9375 1.4375 C-6.02766357 -0.7214109 -3.5092034 -0.26484554 0 0 Z " fill="#A2A2A3" transform="translate(132,216)"/>
<path d="M0 0 C1.875 1.125 1.875 1.125 3 3 C3.38976435 6.11811483 3.50422245 8.11019567 1.9375 10.875 C-1.14071911 12.66235303 -3.52906068 12.43386742 -7 12 C-9 10.375 -9 10.375 -10 8 C-9.875 4.875 -9.875 4.875 -9 2 C-5.53076119 -0.31282587 -4.07794425 -0.42478586 0 0 Z " fill="#09AB64" transform="translate(131,122)"/>
<path d="M0 0 C0.99 0 1.98 0 3 0 C3 4.29 3 8.58 3 13 C3.66 13 4.32 13 5 13 C5 13.66 5 14.32 5 15 C4.34 15 3.68 15 3 15 C3 15.99 3 16.98 3 18 C2.01 17.67 1.02 17.34 0 17 C0 16.34 0 15.68 0 15 C-2.64 15 -5.28 15 -8 15 C-7.44011356 10.80085169 -6.04944839 8.14003726 -3.625 4.6875 C-3.01914063 3.80449219 -2.41328125 2.92148438 -1.7890625 2.01171875 C-1.19867188 1.34785156 -0.60828125 0.68398437 0 0 Z " fill="#A4A4A5" transform="translate(214,167)"/>
<path d="M0 0 C3.3 0 6.6 0 10 0 C10 0.99 10 1.98 10 3 C7.36 3 4.72 3 2 3 C2 4.32 2 5.64 2 7 C2.928125 6.938125 3.85625 6.87625 4.8125 6.8125 C8 7 8 7 9.875 8.1875 C11.40659584 10.65507108 11.42822025 12.14519831 11 15 C9.9375 16.8125 9.9375 16.8125 8 18 C4.4375 18.3125 4.4375 18.3125 1 18 C0.34 17.34 -0.32 16.68 -1 16 C-1 15.01 -1 14.02 -1 13 C-0.13375 13.495 -0.13375 13.495 0.75 14 C3.19883862 15.27075898 3.19883862 15.27075898 7 15 C7 13.35 7 11.7 7 10 C3.95613276 9.91773332 1.92824652 10.02391783 -1 11 C-0.67 7.37 -0.34 3.74 0 0 Z " fill="#B4B4B5" transform="translate(173,203)"/>
<path d="M0 0 C2 2 2 2 2.0625 5.5625 C2.041875 6.696875 2.02125 7.83125 2 9 C2.33 9.33 2.66 9.66 3 10 C3.29178308 12.77193929 3.36366316 14.41409825 1.875 16.8125 C-0.87155972 18.55198782 -2.81846974 18.39769128 -6 18 C-7.875 16.6875 -7.875 16.6875 -9 15 C-9 14.01 -9 13.02 -9 12 C-8.34 12 -7.68 12 -7 12 C-6.67 12.66 -6.34 13.32 -6 14 C-4.02 14 -2.04 14 0 14 C0 13.01 0 12.02 0 11 C-1.98 10.34 -3.96 9.68 -6 9 C-6 8.34 -6 7.68 -6 7 C-4.35 6.67 -2.7 6.34 -1 6 C-1 5.01 -1 4.02 -1 3 C-3.76276177 3.52268466 -6.3260876 4.10869587 -9 5 C-8.625 3.0625 -8.625 3.0625 -8 1 C-5.23749964 -0.38125018 -3.05268901 -0.19079306 0 0 Z " fill="#AFAFB0" transform="translate(231,119)"/>
<path d="M0 0 C3.5625 0.1875 3.5625 0.1875 5.5625 2.1875 C5.5 5.0625 5.5 5.0625 4.5625 8.1875 C2.0625 10.4375 2.0625 10.4375 -0.4375 12.1875 C-0.7675 12.8475 -1.0975 13.5075 -1.4375 14.1875 C0.8725 14.5175 3.1825 14.8475 5.5625 15.1875 C5.5625 15.8475 5.5625 16.5075 5.5625 17.1875 C1.9325 17.1875 -1.6975 17.1875 -5.4375 17.1875 C-4.32303167 11.61515834 -4.32303167 11.61515834 -1.4375 9.125 C1.08382231 6.9370256 1.99252984 5.50045156 2.5625 2.1875 C0.08983235 2.53194881 0.08983235 2.53194881 -2.4375 3.1875 C-2.7675 3.8475 -3.0975 4.5075 -3.4375 5.1875 C-4.0975 5.1875 -4.7575 5.1875 -5.4375 5.1875 C-4.31932898 0.23559976 -4.31932898 0.23559976 0 0 Z " fill="#B3B3B4" transform="translate(135.4375,23.8125)"/>
<path d="M0 0 C2 2 2 2 2.5625 4.6875 C1.7309593 9.58435082 -1.34230514 11.84617127 -5 15 C-2.36 15.33 0.28 15.66 3 16 C3 16.66 3 17.32 3 18 C-0.96 18 -4.92 18 -9 18 C-7.81026486 13.24105942 -6.10738849 11.94928471 -2.59375 8.78125 C-0.85426932 6.83712453 -0.40197206 5.54582306 0 3 C-4.07964281 4.30155006 -4.07964281 4.30155006 -8 6 C-7.625 3.5625 -7.625 3.5625 -7 1 C-4.48718205 -0.25640898 -2.78302919 -0.20872719 0 0 Z " fill="#A6A6A7" transform="translate(217,73)"/>
<path d="M0 0 C2.0625 0.25 2.0625 0.25 4 1 C5.5635348 4.12706959 5.39958487 7.57982443 5 11 C4.01 12.485 4.01 12.485 3 14 C-0.875 13.125 -0.875 13.125 -2 12 C-2.1245486 10.35769636 -2.17568524 8.70947724 -2.1875 7.0625 C-2.20167969 6.16660156 -2.21585938 5.27070312 -2.23046875 4.34765625 C-2 2 -2 2 0 0 Z " fill="#FAFAFA" transform="translate(53,74)"/>
<path d="M0 0 C1.51400391 0.01740234 1.51400391 0.01740234 3.05859375 0.03515625 C4.07050781 0.04417969 5.08242187 0.05320313 6.125 0.0625 C7.29869141 0.07990234 7.29869141 0.07990234 8.49609375 0.09765625 C7.8799754 4.41697012 6.85370797 8.349744 5.43359375 12.47265625 C5.07136719 13.53226563 4.70914063 14.591875 4.3359375 15.68359375 C4.05878906 16.48023438 3.78164062 17.276875 3.49609375 18.09765625 C2.83609375 18.09765625 2.17609375 18.09765625 1.49609375 18.09765625 C2.06430123 12.6428644 3.4424732 8.18706369 5.49609375 3.09765625 C3.51609375 3.09765625 1.53609375 3.09765625 -0.50390625 3.09765625 C-0.83390625 4.08765625 -1.16390625 5.07765625 -1.50390625 6.09765625 C-2.16390625 6.09765625 -2.82390625 6.09765625 -3.50390625 6.09765625 C-3.54662725 4.4315372 -3.54454457 2.7638274 -3.50390625 1.09765625 C-2.50390625 0.09765625 -2.50390625 0.09765625 0 0 Z " fill="#B4B4B5" transform="translate(74.50390625,201.90234375)"/>
<path d="M0 0 C0 5.61 0 11.22 0 17 C-0.99 17.33 -1.98 17.66 -3 18 C-3 13.38 -3 8.76 -3 4 C-4.32 3.67 -5.64 3.34 -7 3 C-3.375 0 -3.375 0 0 0 Z " fill="#B1B1B2" transform="translate(181,38)"/>
<path d="M0 0 C0 5.61 0 11.22 0 17 C-0.99 17 -1.98 17 -3 17 C-3 12.71 -3 8.42 -3 4 C-4.32 3.67 -5.64 3.34 -7 3 C-3.375 0 -3.375 0 0 0 Z " fill="#B0B0B1" transform="translate(74,37)"/>
<path d="M0 0 C0 5.94 0 11.88 0 18 C-0.99 17.67 -1.98 17.34 -3 17 C-3 12.71 -3 8.42 -3 4 C-3.99 4 -4.98 4 -6 4 C-6 3.34 -6 2.68 -6 2 C-3 0 -3 0 0 0 Z " fill="#ADADAE" transform="translate(89,37)"/>
<path d="M0 0 C3.25696479 0.41755959 4.63443291 0.63443291 7 3 C7.265625 5.49609375 7.265625 5.49609375 7.25 8.4375 C7.25515625 9.40558594 7.2603125 10.37367187 7.265625 11.37109375 C7 14 7 14 5 17 C2.375 17.1875 2.375 17.1875 0 17 C0.66 16.505 1.32 16.01 2 15.5 C4.91145116 11.86068605 4.37010686 9.58932505 4 5 C2.74458443 2.48916886 1.49936512 2.12874554 -1 1 C-0.67 0.67 -0.34 0.34 0 0 Z " fill="#A4A4A5" transform="translate(53,72)"/>
<path d="M0 0 C1.65 0.33 3.3 0.66 5 1 C5.625 3.375 5.625 3.375 6 6 C5.34 6.66 4.68 7.32 4 8 C1.375 7.625 1.375 7.625 -1 7 C-0.67 4.69 -0.34 2.38 0 0 Z " fill="#F8F8F8" transform="translate(26,121)"/>
<path d="M0 0 C0 5.94 0 11.88 0 18 C-0.66 18 -1.32 18 -2 18 C-2.33 13.38 -2.66 8.76 -3 4 C-3.99 4 -4.98 4 -6 4 C-6 3.34 -6 2.68 -6 2 C-3 0 -3 0 0 0 Z " fill="#A2A2A3" transform="translate(42,72)"/>
<path d="M0 0 C0 5.61 0 11.22 0 17 C-0.66 17 -1.32 17 -2 17 C-2 12.38 -2 7.76 -2 3 C-3.32 3.33 -4.64 3.66 -6 4 C-5.67 3.01 -5.34 2.02 -5 1 C-3 0 -3 0 0 0 Z " fill="#A1A1A2" transform="translate(123,24)"/>
<path d="M0 0 C2.5625 0.1875 2.5625 0.1875 4.5625 2.1875 C4.1875 4.3125 4.1875 4.3125 3.5625 6.1875 C1.5825 6.1875 -0.3975 6.1875 -2.4375 6.1875 C-2.81968767 4.53135343 -3.15145102 2.86292976 -3.4375 1.1875 C-2.4375 0.1875 -2.4375 0.1875 0 0 Z " fill="#F7F7F8" transform="translate(41.4375,174.8125)"/>
<path d="M0 0 C1.67542976 0.28604898 3.34385343 0.61781233 5 1 C5 2.65 5 4.3 5 6 C2.625 6.625 2.625 6.625 0 7 C-0.66 6.34 -1.32 5.68 -2 5 C-1.46428571 1.46428571 -1.46428571 1.46428571 0 0 Z " fill="#FAFAFA" transform="translate(126,224)"/>
<path d="M0 0 C0.33 0 0.66 0 1 0 C0.6875 3.375 0.6875 3.375 0 7 C-3 9 -3 9 -6.1875 8.625 C-7.5796875 8.315625 -7.5796875 8.315625 -9 8 C-9.33 6.68 -9.66 5.36 -10 4 C-7.69 4.33 -5.38 4.66 -3 5 C-2.690625 4.360625 -2.38125 3.72125 -2.0625 3.0625 C-1 1 -1 1 0 0 Z " fill="#B6B6B7" transform="translate(133,225)"/>
<path d="M0 0 C0.33 0 0.66 0 1 0 C1 4.29 1 8.58 1 13 C1.66 13 2.32 13 3 13 C3 13.66 3 14.32 3 15 C2.34 15 1.68 15 1 15 C1 15.99 1 16.98 1 18 C0.01 17.67 -0.98 17.34 -2 17 C-2 16.34 -2 15.68 -2 15 C-4.64 15 -7.28 15 -10 15 C-10 14.67 -10 14.34 -10 14 C-5.545 13.505 -5.545 13.505 -1 13 C-0.67 8.71 -0.34 4.42 0 0 Z " fill="#B6B6B7" transform="translate(216,167)"/>
<path d="M0 0 C0.66 0 1.32 0 2 0 C1.41936021 4.79027826 -0.33668212 8.04307058 -3 12 C-5.25 12.9375 -5.25 12.9375 -7 13 C-5.39516194 8.33138019 -3.02509806 3.90741833 0 0 Z " fill="#98BF9E" transform="translate(154,82)"/>
<path d="M0 0 C0.33 0 0.66 0 1 0 C1.125 2.375 1.125 2.375 1 5 C-1 7 -1 7 -4.5 7.25 C-8 7 -8 7 -10 5 C-10 4.01 -10 3.02 -10 2 C-9.443125 2.350625 -8.88625 2.70125 -8.3125 3.0625 C-5.46113217 4.21845993 -3.91482778 3.80967438 -1 3 C-0.67 2.01 -0.34 1.02 0 0 Z " fill="#AAAAAB" transform="translate(182,214)"/>
<path d="M0 0 C0.33 0 0.66 0 1 0 C1 2.97 1 5.94 1 9 C-0.98 9 -2.96 9 -5 9 C-3.75471468 5.55151758 -2.38532951 2.80016942 0 0 Z " fill="#E9E9E9" transform="translate(214,171)"/>
<path d="M0 0 C1.670625 0.061875 1.670625 0.061875 3.375 0.125 C3.705 1.445 4.035 2.765 4.375 4.125 C3.3025 3.8775 2.23 3.63 1.125 3.375 C-2.65245496 2.70071378 -2.65245496 2.70071378 -5.0625 5.0625 C-5.578125 5.743125 -6.09375 6.42375 -6.625 7.125 C-5.84042384 2.15601765 -5.49387562 0.18944399 0 0 Z " fill="#A9A9AA" transform="translate(128.625,215.875)"/>
<path d="M0 0 C0.99 0 1.98 0 3 0 C1.125 3.875 1.125 3.875 0 5 C-2.33944736 4.71269945 -4.6739143 4.38063221 -7 4 C-7.33 3.01 -7.66 2.02 -8 1 C-5.36 1.33 -2.72 1.66 0 2 C0 1.34 0 0.68 0 0 Z " fill="#B0B0B1" transform="translate(31,132)"/>
<path d="M0 0 C2 2 2 2 2 6 C1.34 6 0.68 6 0 6 C-0.33 5.01 -0.66 4.02 -1 3 C-3.76276177 3.52268466 -6.3260876 4.10869587 -9 5 C-8.625 3.0625 -8.625 3.0625 -8 1 C-5.23749964 -0.38125018 -3.05268901 -0.19079306 0 0 Z " fill="#A7A7A8" transform="translate(231,119)"/>
<path d="M0 0 C0.66 0.66 1.32 1.32 2 2 C1.67 2.99 1.34 3.98 1 5 C0.67 4.67 0.34 4.34 0 4 C-3.72224599 3.70613847 -4.77786243 3.85190829 -8 6 C-7.625 3.5625 -7.625 3.5625 -7 1 C-4.48718205 -0.25640898 -2.78302919 -0.20872719 0 0 Z " fill="#AFAFB0" transform="translate(217,73)"/>
<path d="M0 0 C1.98 0 3.96 0 6 0 C5.67 1.65 5.34 3.3 5 5 C2.03 4.505 2.03 4.505 -1 4 C-0.67 2.68 -0.34 1.36 0 0 Z " fill="#F5F5F5" transform="translate(39,168)"/>
<path d="M0 0 C1.134375 0.020625 2.26875 0.04125 3.4375 0.0625 C3.7675 1.7125 4.0975 3.3625 4.4375 5.0625 C3.7775 4.4025 3.1175 3.7425 2.4375 3.0625 C-0.14604218 2.89562552 -0.14604218 2.89562552 -2.5625 3.0625 C-2.8925 3.7225 -3.2225 4.3825 -3.5625 5.0625 C-4.2225 5.0625 -4.8825 5.0625 -5.5625 5.0625 C-4.43693182 0.07784091 -4.43693182 0.07784091 0 0 Z " fill="#A5A5A6" transform="translate(135.5625,23.9375)"/>
<path d="M0 0 C0.66 0.33 1.32 0.66 2 1 C1.34 4.63 0.68 8.26 0 12 C-3 8 -3 8 -2.8125 4.875 C-2 2 -2 2 0 0 Z " fill="#B7B7B8" transform="translate(51,72)"/>
<path d="M0 0 C3.63 0.33 7.26 0.66 11 1 C11 1.66 11 2.32 11 3 C7.37 3 3.74 3 0 3 C0 2.01 0 1.02 0 0 Z " fill="#A0A0A1" transform="translate(130,38)"/>
<path d="M0 0 C3.63 0 7.26 0 11 0 C10.67 0.66 10.34 1.32 10 2 C7.69 1.67 5.38 1.34 3 1 C2.67 2.32 2.34 3.64 2 5 C1.34 5 0.68 5 0 5 C0 3.35 0 1.7 0 0 Z " fill="#ABABAB" transform="translate(71,203)"/>
<path d="M0 0 C0.33 1.65 0.66 3.3 1 5 C0.01 4.67 -0.98 4.34 -2 4 C-2 3.01 -2 2.02 -2 1 C-3.65 1 -5.3 1 -7 1 C-3.375 -1.125 -3.375 -1.125 0 0 Z " fill="#B6B6B7" transform="translate(47,167)"/>
</svg>
