<svg version="1.1" xmlns="http://www.w3.org/2000/svg" xmlns:xlink="http://www.w3.org/1999/xlink" width="17.04204" height="17.04204" viewBox="0,0,17.04204,17.04204"><g transform="translate(-231.47898,-171.47898)"><g fill="#000000" stroke="#000000" stroke-miterlimit="10"><path d="M247.01839,171.97898c0.55458,0 1.00263,0.44805 1.00263,1.00263v5.01314c0,0.55458 -0.44805,1.00263 -1.00263,1.00263c-0.55458,0 -1.00263,-0.44805 -1.00263,-1.00263v-2.59117l-6.30715,6.31029c-0.39165,0.39165 -1.02769,0.39165 -1.41934,0c-0.39165,-0.39165 -0.39165,-1.02769 0,-1.41934l6.30715,-6.31029h-2.59117c-0.55458,0 -1.00263,-0.44805 -1.00263,-1.00263c0,-0.55458 0.44805,-1.00263 1.00263,-1.00263zM237.99474,172.98161c0.55458,0 1.00263,0.44805 1.00263,1.00263c0,0.55458 -0.44805,1.00263 -1.00263,1.00263h-3.5092c-0.27572,0 -0.50131,0.22559 -0.50131,0.50131v10.02628c0,0.27572 0.22559,0.50131 0.50131,0.50131h10.02628c0.27572,0 0.50131,-0.22559 0.50131,-0.50131v-3.5092c0,-0.55458 0.44805,-1.00263 1.00263,-1.00263c0.55458,0 1.00263,0.44805 1.00263,1.00263v3.5092c0,1.38488 -1.12169,2.50657 -2.50657,2.50657h-10.02628c-1.38488,0 -2.50657,-1.12169 -2.50657,-2.50657v-10.02628c0,-1.38488 1.12169,-2.50657 2.50657,-2.50657z"/></g></g></svg>