<svg version="1.1" xmlns="http://www.w3.org/2000/svg" xmlns:xlink="http://www.w3.org/1999/xlink" width="143.87084" height="39.66667" viewBox="0,0,143.87084,39.66667"><g transform="translate(-169.06458,-162.66666)"><g stroke-miterlimit="10"><g><path d="M170.06458,201.33334v-37.66667h141.87084v37.66667z" fill="#ffffff" stroke="#000000" stroke-width="2"/><path d="M305.6184,174.27898c0.55458,0 1.00262,0.44805 1.00262,1.00263v5.01314c0,0.55458 -0.44804,1.00262 -1.00262,1.00262c-0.55458,0 -1.00263,-0.44805 -1.00263,-1.00262v-2.59117l-6.30716,6.31029c-0.39165,0.39165 -1.02769,0.39165 -1.41934,0c-0.39165,-0.39165 -0.39165,-1.0277 0,-1.41935l6.30715,-6.31028h-2.59116c-0.55458,0 -1.00263,-0.44805 -1.00263,-1.00263c0,-0.55458 0.44805,-1.00263 1.00263,-1.00263zM296.59475,175.28161c0.55458,0 1.00263,0.44805 1.00263,1.00263c0,0.55458 -0.44805,1.00262 -1.00263,1.00262h-3.50919c-0.27573,0 -0.50132,0.22559 -0.50132,0.50132v10.02627c0,0.27572 0.22559,0.50132 0.50132,0.50132h10.02627c0.27573,0 0.50131,-0.22559 0.50131,-0.50132v-3.5092c0,-0.55458 0.44805,-1.00262 1.00263,-1.00262c0.55458,0 1.00263,0.44805 1.00263,1.00262v3.5092c0,1.38488 -1.12169,2.50657 -2.50657,2.50657h-10.02627c-1.38488,0 -2.50657,-1.12169 -2.50657,-2.50657v-10.02627c0,-1.38488 1.12169,-2.50657 2.50657,-2.50657z" fill="#000000" stroke="#000000" stroke-width="1"/><text transform="translate(174.16842,188.14374) scale(0.34888,0.48917)" font-size="40" xml:space="preserve" fill="#000000" stroke="none" stroke-width="1" font-family="Sans Serif" font-weight="normal" text-anchor="start"><tspan x="0" dy="0">ストップウォッチ</tspan></text></g></g></g></svg>